<svg width="30" height="30" viewBox="0 0 30 30" fill="none" xmlns="http://www.w3.org/2000/svg">
<path d="M19.0602 14.9998L26.9204 7.13959C28.0417 6.01834 28.0417 4.20047 26.9204 3.07922C25.7991 1.95797 23.9814 1.95797 22.8601 3.07922L14.9998 10.9395L7.13959 3.07922C6.01834 1.95797 4.20047 1.95797 3.07922 3.07922C1.95797 4.20047 1.95797 6.01834 3.07922 7.13959L10.9395 14.9998L3.07922 22.8601C1.95797 23.9813 1.95797 25.7992 3.07922 26.9204C3.63984 27.481 4.37461 27.7614 5.10938 27.7614C5.84414 27.7614 6.57896 27.4811 7.13953 26.9204L14.9998 19.0602L22.8601 26.9204C23.4207 27.481 24.1554 27.7614 24.8902 27.7614C25.625 27.7614 26.3597 27.4811 26.9204 26.9204C28.0416 25.7992 28.0416 23.9813 26.9204 22.8601L19.0602 14.9998Z" fill="white"/>
</svg>
