<svg width="40" height="40" viewBox="0 0 40 40" fill="none" xmlns="http://www.w3.org/2000/svg">
<circle cx="20.6667" cy="19.3337" r="16.6667" fill="white"/>
<path d="M20.6667 2.66699C11.4667 2.66699 4 10.1337 4 19.3337C4 28.5337 11.4667 36.0003 20.6667 36.0003C29.8667 36.0003 37.3333 28.5337 37.3333 19.3337C37.3333 10.1337 29.8667 2.66699 20.6667 2.66699ZM16.15 26.4837L10.1667 20.5003C10.0124 20.346 9.88996 20.1628 9.80645 19.9612C9.72295 19.7596 9.67997 19.5435 9.67997 19.3253C9.67997 19.1071 9.72295 18.891 9.80645 18.6894C9.88996 18.4878 10.0124 18.3046 10.1667 18.1503C10.321 17.996 10.5042 17.8736 10.7058 17.7901C10.9074 17.7066 11.1234 17.6636 11.3417 17.6636C11.5599 17.6636 11.776 17.7066 11.9776 17.7901C12.1792 17.8736 12.3624 17.996 12.5167 18.1503L17.3333 22.9503L28.8 11.4837C29.1116 11.172 29.5343 10.997 29.975 10.997C30.4157 10.997 30.8384 11.172 31.15 11.4837C31.4616 11.7953 31.6367 12.2179 31.6367 12.6587C31.6367 13.0994 31.4616 13.522 31.15 13.8337L18.5 26.4837C18.3458 26.6382 18.1627 26.7607 17.961 26.8444C17.7594 26.928 17.5433 26.9711 17.325 26.9711C17.1067 26.9711 16.8906 26.928 16.689 26.8444C16.4873 26.7607 16.3042 26.6382 16.15 26.4837Z" fill="#1CC002"/>
</svg>
