<svg width="40" height="40" viewBox="0 0 40 40" fill="none" xmlns="http://www.w3.org/2000/svg">
<path d="M12.9439 23.3163V9.9713C12.9406 8.58797 13.9906 7.4713 15.3739 7.4713C16.7556 7.4713 17.9155 8.59464 17.9155 9.9763M17.9155 9.9763V17.4696M17.9155 9.9763V6.6663C17.9162 6.00304 18.1803 5.36721 18.6498 4.89868C18.8823 4.66669 19.1581 4.48275 19.4617 4.35738C19.7652 4.232 20.0905 4.16764 20.4189 4.16797C20.7473 4.1683 21.0724 4.23331 21.3757 4.35929C21.679 4.48527 21.9545 4.66976 22.1865 4.90221C22.4185 5.13467 22.6024 5.41054 22.7278 5.71409C22.8532 6.01763 22.9175 6.34289 22.9172 6.6713V17.4596M27.9206 19.1313V9.9763C27.9209 9.64778 27.8565 9.32241 27.7311 9.01877C27.6057 8.71512 27.4217 8.43916 27.1896 8.20663C26.9575 7.97409 26.6819 7.78955 26.3785 7.66352C26.0751 7.5375 25.7499 7.47246 25.4214 7.47214C25.0929 7.47181 24.7675 7.53619 24.4638 7.66161C24.1602 7.78703 23.8842 7.97102 23.6517 8.20309C23.4192 8.43516 23.2346 8.71076 23.1086 9.01415C22.9826 9.31754 22.9175 9.64278 22.9172 9.9713M27.9206 16.043C29.2639 15.8413 32.5739 16.043 32.9122 19.138V25.2413C32.9122 27.508 33.0839 30.2363 31.1406 32.558C29.9739 34.2913 27.4855 35.2413 27.4855 35.2413C24.9189 36.0896 22.5956 35.7463 21.0739 35.803C19.3489 35.8646 18.1672 35.8696 16.7205 35.5496C16.7205 35.5496 13.4206 34.988 11.3239 31.4413C9.71222 28.7196 5.52388 24.8846 7.69888 21.4213C9.10222 19.1863 11.8739 16.7413 12.9439 15.8046" stroke="white" stroke-width="2" stroke-linecap="round" stroke-linejoin="round"/>
</svg>
