<svg width="50" height="50" viewBox="0 0 50 50" fill="none" xmlns="http://www.w3.org/2000/svg">
<g clip-path="url(#clip0_125_108)">
<path d="M25 0C18.3711 0 12.0078 2.63555 7.32422 7.32227C2.63583 12.0109 0.0013416 18.3695 0 25C0 31.6277 2.63672 37.991 7.32422 42.6777C12.0078 47.3645 18.3711 50 25 50C31.6289 50 37.9922 47.3645 42.6758 42.6777C47.3633 37.991 50 31.6277 50 25C50 18.3723 47.3633 12.009 42.6758 7.32227C37.9922 2.63555 31.6289 0 25 0Z" fill="url(#paint0_linear_125_108)"/>
<path d="M11.3163 24.7361C18.6053 21.5611 23.4647 19.4679 25.8944 18.4564C32.8397 15.5685 34.2811 15.0669 35.2225 15.05C35.4295 15.0466 35.8905 15.0978 36.1913 15.341C36.4413 15.546 36.5116 15.8234 36.5467 16.0181C36.578 16.2126 36.6209 16.656 36.5858 17.0021C36.2108 20.9552 34.5819 30.5482 33.7538 34.9759C33.4061 36.8494 32.7147 37.4775 32.0467 37.5388C30.5936 37.6724 29.492 36.5794 28.0858 35.658C25.8866 34.2154 24.6444 33.3177 22.5077 31.9103C20.0389 30.2837 21.6405 29.3896 23.0467 27.9287C23.4139 27.5462 29.8124 21.7279 29.9334 21.2001C29.9491 21.1341 29.9647 20.888 29.8163 20.7584C29.6717 20.6283 29.4569 20.6728 29.3006 20.708C29.078 20.758 25.5663 23.0814 18.7538 27.6779C17.7577 28.363 16.8553 28.697 16.0428 28.6794C15.1522 28.6603 13.4334 28.1748 12.1561 27.7599C10.5936 27.2509 9.34751 26.9818 9.45688 26.1173C9.51157 25.6673 10.1327 25.2068 11.3163 24.7361Z" fill="white"/>
</g>
<defs>
<linearGradient id="paint0_linear_125_108" x1="2500" y1="0" x2="2500" y2="5000" gradientUnits="userSpaceOnUse">
<stop stop-color="#2AABEE"/>
<stop offset="1" stop-color="#229ED9"/>
</linearGradient>
<clipPath id="clip0_125_108">
<rect width="50" height="50" fill="white"/>
</clipPath>
</defs>
</svg>
